<?xml version="1.0" encoding="UTF-8" standalone="no"?>
<svg width="208px" height="208px" viewBox="0 0 208 208" version="1.1" xmlns="http://www.w3.org/2000/svg" xmlns:xlink="http://www.w3.org/1999/xlink">
    <!-- Generator: Sketch 3.8.2 (29753) - http://www.bohemiancoding.com/sketch -->
    <title>white vs</title>
    <desc>Created with Sketch.</desc>
    <defs></defs>
    <g id="Page-1" stroke="none" stroke-width="1" fill="none" fill-rule="evenodd">
        <g id="white-vs" transform="translate(8.000000, 8.000000)">
            <path d="M97,154.235107 C97,154.235107 136,98.5391052 136,77 C136,55.4608948 118.539105,38 97,38 C75.4608948,38 58,55.4608948 58,77 C58,98.5391052 97,154.235107 97,154.235107 Z" id="Oval-1" fill="#FFFFFF"></path>
            <path d="M5.61820133,128.436898 C18.9195307,165.494658 54.3644382,192 96,192 C149.019336,192 192,149.019336 192,96 C192,42.980664 149.019336,0 96,0 C42.980664,0 0,44.980664 0,98 C-8.8817842e-16,99.4648438 18.2979455,98 18.2979455,98" id="Oval-2" stroke="#FFFFFF" stroke-width="16" stroke-linecap="round" transform="translate(96.000000, 96.000000) rotate(-90.000000) translate(-96.000000, -96.000000) "></path>
        </g>
    </g>
</svg>