<?xml version="1.0" encoding="UTF-8" standalone="no"?>
<svg width="104px" height="104px" viewBox="0 0 104 104" version="1.1" xmlns="http://www.w3.org/2000/svg" xmlns:xlink="http://www.w3.org/1999/xlink">
    <!-- Generator: Sketch 3.8.2 (29753) - http://www.bohemiancoding.com/sketch -->
    <title>logo</title>
    <desc>Created with Sketch.</desc>
    <defs></defs>
    <g id="cubes" stroke="none" stroke-width="1" fill="none" fill-rule="evenodd">
        <g id="logo-+-name" transform="translate(4.000000, 4.000000)">
            <g id="logo">
                <g id="pin-yellow" transform="translate(29.000000, 19.000000)">
                    <path d="M19.5,58.1175537 C19.5,58.1175537 39,30.2695526 39,19.5 C39,8.73044738 30.2695526,-4.61852778e-14 19.5,-4.61852778e-14 C8.73044738,-4.61852778e-14 5.68434189e-14,8.73044738 5.68434189e-14,19.5 C5.68434189e-14,30.2695526 19.5,58.1175537 19.5,58.1175537 Z" id="Oval-1" fill="#FFA000"></path>
                    <path d="M32.0352862,4.56232318 C36.2934223,8.13938083 39,13.5036129 39,19.5 C39,30.2695526 19.5,58.1175537 19.5,58.1175537 C19.5,58.1175537 12.5376859,48.1746547 6.9334367,37.8736025 L32.0352862,4.56232318 Z" id="bottom-half" fill="#F57F17"></path>
                </g>
                <path d="M2.80910067,64.2184491 C9.45976533,82.747329 27.1822191,96 48,96 C74.509668,96 96,74.509668 96,48 C96,21.490332 74.509668,0 48,0 C21.490332,0 0,22.490332 0,49 C-4.4408921e-16,49.7324219 9.14897277,49 9.14897277,49" id="loop" stroke="#FFFFFF" stroke-width="8" stroke-linecap="round" transform="translate(48.000000, 48.000000) rotate(-90.000000) translate(-48.000000, -48.000000) "></path>
            </g>
        </g>
    </g>
</svg>