<?xml version="1.0" standalone="no"?>
<!DOCTYPE svg PUBLIC "-//W3C//DTD SVG 20010904//EN"
 "http://www.w3.org/TR/2001/REC-SVG-20010904/DTD/svg10.dtd">
<svg version="1.0" xmlns="http://www.w3.org/2000/svg"
 width="700.000000pt" height="700.000000pt" viewBox="0 0 700.000000 700.000000"
 preserveAspectRatio="xMidYMid meet">
<metadata>
Created by potrace 1.11, written by Peter Selinger 2001-2013
</metadata>
<g transform="translate(0.000000,700.000000) scale(0.100000,-0.100000)"
fill="#000000" stroke="none">
<path d="M3298 6996 c-1 -2 -41 -6 -88 -10 -100 -7 -225 -22 -295 -36 -27 -5
-63 -12 -80 -15 -68 -11 -95 -17 -190 -41 -296 -75 -622 -206 -865 -347 -47
-28 -94 -55 -105 -61 -27 -14 -229 -148 -235 -155 -3 -4 -41 -33 -84 -66 -159
-120 -340 -293 -520 -495 -57 -64 -186 -236 -254 -339 -300 -454 -485 -958
-557 -1511 -26 -207 -27 -667 -1 -820 3 -14 7 -47 11 -75 19 -162 82 -428 142
-605 219 -640 605 -1186 1154 -1635 205 -168 516 -355 794 -480 56 -25 288
-115 310 -120 6 -1 17 -5 25 -8 38 -16 277 -80 380 -101 100 -21 136 -27 235
-41 11 -2 49 -6 85 -10 36 -4 74 -9 85 -11 11 -2 110 -7 221 -10 201 -6 201
-6 227 17 14 13 46 41 71 62 39 33 49 50 68 110 19 63 22 95 22 252 -1 342
-17 507 -57 575 -33 58 -107 112 -171 127 -127 29 -270 -53 -312 -180 -16 -48
-16 -123 1 -375 l3 -44 -52 6 c-28 4 -71 9 -96 12 -25 3 -67 9 -95 14 -27 5
-65 12 -82 15 -64 10 -170 37 -286 71 -639 187 -1207 588 -1609 1135 -241 326
-421 737 -503 1144 -43 215 -50 297 -50 580 1 141 6 275 13 325 21 134 22 142
32 195 5 28 11 61 14 75 30 176 140 488 248 704 148 296 313 522 557 767 247
246 473 410 776 561 258 129 587 235 855 273 19 3 49 7 65 10 92 14 213 20
400 20 271 0 339 -6 585 -55 1268 -251 2239 -1331 2357 -2620 10 -108 10 -471
1 -570 -55 -554 -270 -1085 -622 -1540 -84 -109 -334 -368 -421 -436 -27 -21
-52 -41 -55 -44 -11 -13 -130 -100 -200 -147 -171 -115 -356 -214 -531 -283
-192 -77 -230 -104 -270 -195 -91 -203 103 -426 316 -362 156 47 458 189 649
306 253 155 448 309 680 537 64 62 198 216 259 297 39 51 73 94 77 97 17 14
167 254 227 361 101 183 165 324 233 509 75 203 153 519 176 705 3 28 8 61 10
75 19 113 25 538 11 710 -7 80 -23 213 -31 256 -2 10 -11 60 -21 109 -96 513
-321 1019 -643 1444 -162 214 -323 382 -580 603 -58 51 -242 184 -321 233
-336 209 -638 343 -986 435 -188 50 -286 68 -575 106 -48 6 -526 15 -532 10z"/>
<path d="M3399 5446 c-2 -2 -29 -7 -59 -11 -64 -7 -219 -47 -282 -72 -237 -92
-473 -282 -614 -494 -51 -77 -129 -231 -140 -274 -4 -16 -10 -34 -14 -40 -9
-12 -47 -172 -56 -235 -9 -61 -10 -244 -2 -301 22 -153 114 -417 233 -674 72
-154 131 -269 266 -521 127 -238 442 -750 671 -1092 l130 -193 17 23 c32 41
235 349 343 518 616 972 941 1668 953 2040 2 76 -4 155 -20 260 -21 137 -111
356 -202 491 -205 302 -514 500 -878 563 -72 12 -336 21 -346 12z"/>
</g>
</svg>
